M48
;Layer_Color=9474304
;FILE_FORMAT=2:5
INCH
;TYPE=PLATED
T01F00S00C0.01181
T02F00S00C0.01575
%
T01
X0379399Y0255000
Y0259000
X0379400Y0263300
X0383800
X0383799Y0258997
Y0254997
X0383800Y0267800
X0379400
X0379499Y0290700
Y0294700
X0379500Y0299000
X0383900
X0383899Y0294697
Y0290697
X0390400Y0285300
Y0280900
X0394900
X0399200Y0280899
X0403200
X0403203Y0285299
X0399203
X0394900Y0285300
X0383900Y0303500
X0379500
X0359900Y0305000
Y0297500
X0337600
X0337500Y0301600
X0438800Y0302400
X0438799Y0298100
Y0294100
X0443199Y0294097
Y0298097
X0443200Y0302400
Y0306900
X0438800
X0438600Y0271000
X0443000
Y0266500
X0442999Y0262197
Y0258197
X0438599Y0258200
Y0262200
X0438600Y0266500
X0403503Y0248499
X0399503
X0395200Y0248500
Y0244100
X0399500Y0244099
X0403500
X0390700Y0244100
Y0248500
X0292200Y0255100
X0291862Y0262600
X0293100Y0270400
X0290040Y0276500
X0292100Y0280200
X0290100Y0288500
X0288142Y0299758
X0293800Y0299700
X0297069Y0301431
X0305465Y0300056
X0301400Y0312100
X0286400Y0310200
X0273300Y0304500
X0266100Y0306300
X0255231Y0301331
X0244700Y0299500
X0244800Y0294500
Y0289600
X0241200Y0273600
X0236200Y0273500
X0230700Y0273600
X0215471Y0283071
X0202000Y0279000
X0198300Y0282100
X0195400Y0285300
X0189100Y0299400
X0184700
X0180000
X0174600Y0307800
X0233400Y0311700
X0276532Y0292669
X0280000Y0283200
X0276500Y0271700
X0274900Y0258900
X0305031Y0282531
X0302913Y0319268
X0288800Y0321400
X0268932Y0319168
X0273864Y0329036
X0251974Y0326026
X0241200Y0325200
Y0329100
X0299953Y0333547
X0294300Y0342523
X0306184Y0355310
X0311400Y0329600
X0315000Y0347200
X0319000Y0347500
X0326210Y0355310
X0325300Y0319600
X0360069Y0312971
X0379299Y0328700
Y0332700
X0379300Y0337000
X0383700
X0383699Y0332697
Y0328697
X0383700Y0341500
X0379300
X0390500Y0322100
Y0317700
X0395000
X0399300Y0317699
X0403300
X0403303Y0322099
X0399303
X0395000Y0322100
X0438199Y0332200
Y0336200
X0438200Y0340500
X0442600
X0442599Y0336197
Y0332197
X0442600Y0345000
X0438200
T02
X0336614Y0248031
X0348425
X0360236
X0372047
X0383858
X0407480
X0431102
X0442913
X0448819Y0283465
X0437008
X0425197
X0413386
X0366142
X0354331
X0348425Y0295275
X0336614Y0271654
X0324803
X0330709Y0259842
X0342520
X0354331
X0366142
X0318898Y0283465
X0312992Y0295275
X0265748
X0253937
X0259842Y0283465
X0248031
X0253937Y0271654
X0265748
X0259842Y0259842
X0248031
X0236220
X0224409
X0212598
X0200787
X0188976
X0177165
X0165354
X0171260Y0271654
X0183071
X0194882
Y0248031
X0206693
X0218504
X0230315
X0242126
X0253937
X0265748
X0277559
X0289370
X0248031Y0307086
X0183071Y0248031
X0171260
Y0318898
X0183071
X0194882
X0188976Y0330709
X0177165
X0165354
X0171260Y0342520
X0183071
X0194882
X0200787Y0354331
X0212598
X0224409
X0236220
X0248031
X0259842
X0271654
X0283465
X0295275
X0301181Y0342520
X0242126
X0218504Y0318898
X0188976Y0354331
X0177165
X0165354
X0318898
X0342520
X0354331
X0360236Y0342520
X0348425
X0336614
X0330709Y0330709
X0318898
X0336614Y0318898
X0348425
X0360236
X0354331Y0330709
X0407480Y0318898
X0419291
X0431102
X0442913
X0454724
X0448819Y0354331
X0437008
X0425197
M30
