%TF.GenerationSoftware,Altium Limited,Altium Designer,26.8.1 (31)*%
G04 Layer_Color=16711935*
G04 Board_Origin=15690000|23390000*
%FSLAX26Y26*%
%MOIN*%
%TF.SameCoordinates,869D73A9-762B-40A1-8CBE-81F7C7EE1B6A*%
%TF.FilePolarity,Negative*%
%TF.FileFunction,Soldermask,Bot*%
%TF.Part,Single*%
G01*
G75*
%TA.AperFunction,SMDPad,CuDef*%
%ADD12R,0.267716X0.246063*%
%ADD14R,0.118110X0.059055*%
G04:AMPARAMS|DCode=41|XSize=31.622mil|YSize=35.559mil|CornerRadius=6.953mil|HoleSize=0mil|Usage=FLASHONLY|Rotation=180.000|XOffset=0mil|YOffset=0mil|HoleType=Round|Shape=RoundedRectangle|*
%AMROUNDEDRECTD41*
21,1,0.031622,0.021654,0,0,180.0*
21,1,0.017716,0.035559,0,0,180.0*
1,1,0.013906,-0.008858,0.010827*
1,1,0.013906,0.008858,0.010827*
1,1,0.013906,0.008858,-0.010827*
1,1,0.013906,-0.008858,-0.010827*
%
%ADD41ROUNDEDRECTD41*%
G04:AMPARAMS|DCode=47|XSize=31.622mil|YSize=35.559mil|CornerRadius=6.953mil|HoleSize=0mil|Usage=FLASHONLY|Rotation=270.000|XOffset=0mil|YOffset=0mil|HoleType=Round|Shape=RoundedRectangle|*
%AMROUNDEDRECTD47*
21,1,0.031622,0.021654,0,0,270.0*
21,1,0.017716,0.035559,0,0,270.0*
1,1,0.013906,-0.010827,-0.008858*
1,1,0.013906,-0.010827,0.008858*
1,1,0.013906,0.010827,0.008858*
1,1,0.013906,0.010827,-0.008858*
%
%ADD47ROUNDEDRECTD47*%
G04:AMPARAMS|DCode=51|XSize=47.37mil|YSize=78.866mil|CornerRadius=8.921mil|HoleSize=0mil|Usage=FLASHONLY|Rotation=270.000|XOffset=0mil|YOffset=0mil|HoleType=Round|Shape=RoundedRectangle|*
%AMROUNDEDRECTD51*
21,1,0.047370,0.061024,0,0,270.0*
21,1,0.029528,0.078866,0,0,270.0*
1,1,0.017842,-0.030512,-0.014764*
1,1,0.017842,-0.030512,0.014764*
1,1,0.017842,0.030512,0.014764*
1,1,0.017842,0.030512,-0.014764*
%
%ADD51ROUNDEDRECTD51*%
%TA.AperFunction,ViaPad*%
%ADD54C,0.035559*%
%ADD55C,0.031622*%
%TA.AperFunction,SMDPad,CuDef*%
G04:AMPARAMS|DCode=56|XSize=39.496mil|YSize=47.37mil|CornerRadius=7.937mil|HoleSize=0mil|Usage=FLASHONLY|Rotation=0.000|XOffset=0mil|YOffset=0mil|HoleType=Round|Shape=RoundedRectangle|*
%AMROUNDEDRECTD56*
21,1,0.039496,0.031496,0,0,0.0*
21,1,0.023622,0.047370,0,0,0.0*
1,1,0.015874,0.011811,-0.015748*
1,1,0.015874,-0.011811,-0.015748*
1,1,0.015874,-0.011811,0.015748*
1,1,0.015874,0.011811,0.015748*
%
%ADD56ROUNDEDRECTD56*%
D12*
X2452157Y311000D02*
D03*
X2451157Y670000D02*
D03*
X2446980Y1049000D02*
D03*
D14*
X2706823Y959000D02*
D03*
X2711000Y580000D02*
D03*
X2712000Y221000D02*
D03*
Y401000D02*
D03*
X2711000Y760000D02*
D03*
X2706823Y1139000D02*
D03*
D41*
X1417685Y852000D02*
D03*
X1378315D02*
D03*
X1221315Y657000D02*
D03*
X1260685D02*
D03*
X2256685Y480000D02*
D03*
X2217315D02*
D03*
X2257685Y838000D02*
D03*
X2218315D02*
D03*
X2261685Y1219000D02*
D03*
X2222315D02*
D03*
D47*
X1495000Y824685D02*
D03*
Y785315D02*
D03*
X1461000Y727685D02*
D03*
Y688315D02*
D03*
X1241000Y801370D02*
D03*
Y762000D02*
D03*
D51*
X1749000Y721000D02*
D03*
Y598953D02*
D03*
D54*
X2919188Y1204306D02*
D03*
X2978243Y849975D02*
D03*
X2919188Y495645D02*
D03*
X2801077Y1204306D02*
D03*
X2860133Y849975D02*
D03*
X2801077Y495645D02*
D03*
X2860133Y141314D02*
D03*
X2682967Y1204306D02*
D03*
X2742022Y849975D02*
D03*
X2682967Y495645D02*
D03*
X2742022Y141314D02*
D03*
X2623912Y849975D02*
D03*
X2564857Y495645D02*
D03*
X2505802Y849975D02*
D03*
Y141314D02*
D03*
X2269581D02*
D03*
X2092416Y495645D02*
D03*
Y259424D02*
D03*
X2151471Y141314D02*
D03*
X1974306Y1204306D02*
D03*
X2033361Y1086196D02*
D03*
X1974306Y968086D02*
D03*
X2033361Y849975D02*
D03*
X1974306Y495645D02*
D03*
Y259424D02*
D03*
X2033361Y141314D02*
D03*
X1856196Y1204306D02*
D03*
X1915251Y1086196D02*
D03*
Y849975D02*
D03*
Y613755D02*
D03*
X1856196Y259424D02*
D03*
X1915251Y141314D02*
D03*
X1797141Y1086196D02*
D03*
X1738086Y968086D02*
D03*
X1797141Y849975D02*
D03*
Y377535D02*
D03*
X1738086Y259424D02*
D03*
X1797141Y141314D02*
D03*
X1619975Y1204306D02*
D03*
Y968086D02*
D03*
Y495645D02*
D03*
X1679031Y377535D02*
D03*
X1560920Y613755D02*
D03*
X1383755Y1204306D02*
D03*
X1442810Y1086196D02*
D03*
X1265645Y1204306D02*
D03*
X1324700Y141314D02*
D03*
X1147535Y1204306D02*
D03*
X1206590Y141314D02*
D03*
X1029424Y1204306D02*
D03*
X1088479Y613755D02*
D03*
X1029424Y495645D02*
D03*
X1088479Y377535D02*
D03*
X1029424Y259424D02*
D03*
X1088479Y141314D02*
D03*
X911314Y1204306D02*
D03*
Y731865D02*
D03*
X970369Y613755D02*
D03*
X911314Y495645D02*
D03*
X970369Y377535D02*
D03*
X911314Y259424D02*
D03*
X970369Y141314D02*
D03*
X793204Y1204306D02*
D03*
X852259Y1086196D02*
D03*
X793204Y259424D02*
D03*
X852259Y141314D02*
D03*
X675094Y1204306D02*
D03*
Y259424D02*
D03*
X734149Y141314D02*
D03*
X556984Y1204306D02*
D03*
X616039Y849975D02*
D03*
X556984Y259424D02*
D03*
X616039Y141314D02*
D03*
X438873Y1204306D02*
D03*
Y259424D02*
D03*
X497928Y141314D02*
D03*
X320763Y1204306D02*
D03*
X379818Y1086196D02*
D03*
X320763Y968086D02*
D03*
X379818Y849975D02*
D03*
Y377535D02*
D03*
X320763Y259424D02*
D03*
X379818Y141314D02*
D03*
X202653Y1204306D02*
D03*
X261708Y1086196D02*
D03*
X202653Y968086D02*
D03*
X261708Y849975D02*
D03*
Y377535D02*
D03*
X202653Y259424D02*
D03*
X261708Y141314D02*
D03*
X84543Y1204306D02*
D03*
X143598Y1086196D02*
D03*
X84543Y968086D02*
D03*
X143598Y849975D02*
D03*
Y377535D02*
D03*
X84543Y259424D02*
D03*
X143598Y141314D02*
D03*
D55*
X1331402Y426000D02*
D03*
X1460135Y853677D02*
D03*
X1332000Y546000D02*
D03*
X1485646Y661555D02*
D03*
X1369000Y658000D02*
D03*
X1445000Y782000D02*
D03*
X1312417Y658583D02*
D03*
X1196315Y587685D02*
D03*
X1231000Y493000D02*
D03*
X1164000Y706000D02*
D03*
X1092000Y724000D02*
D03*
X1352000Y463000D02*
D03*
X1196000Y378000D02*
D03*
X1180000Y250000D02*
D03*
X1353000Y212000D02*
D03*
X1349624Y287000D02*
D03*
X1362000Y365000D02*
D03*
X843000Y913000D02*
D03*
X1621000Y1136000D02*
D03*
X2031693Y790707D02*
D03*
X1295000Y763000D02*
D03*
X1581000Y1133000D02*
D03*
X1693102Y1214102D02*
D03*
X1492840D02*
D03*
X1401685Y675315D02*
D03*
X2813000Y1111000D02*
D03*
Y1066000D02*
D03*
X2812992Y983000D02*
D03*
Y1023000D02*
D03*
X2856992Y1022968D02*
D03*
Y982968D02*
D03*
X2857000Y1066000D02*
D03*
Y1111000D02*
D03*
X2819000Y730000D02*
D03*
Y685000D02*
D03*
X2818992Y602000D02*
D03*
Y642000D02*
D03*
X2862992Y641968D02*
D03*
Y601968D02*
D03*
X2863000Y685000D02*
D03*
Y730000D02*
D03*
X2817000Y371000D02*
D03*
Y326000D02*
D03*
X2816992Y243000D02*
D03*
Y283000D02*
D03*
X2860992Y282969D02*
D03*
Y242969D02*
D03*
X2861000Y326000D02*
D03*
Y371000D02*
D03*
X2338000Y102000D02*
D03*
X2383000D02*
D03*
X2466000Y101992D02*
D03*
X2426000D02*
D03*
X2426032Y145992D02*
D03*
X2466032D02*
D03*
X2383000Y146000D02*
D03*
X2338000D02*
D03*
X2335000Y470000D02*
D03*
X2380000D02*
D03*
X2463000Y469992D02*
D03*
X2423000D02*
D03*
X2423032Y513992D02*
D03*
X2463032D02*
D03*
X2380000Y514000D02*
D03*
X2335000D02*
D03*
X2336000Y882000D02*
D03*
X2381000D02*
D03*
X2464032Y881992D02*
D03*
X2424032D02*
D03*
X2424000Y837992D02*
D03*
X2464000D02*
D03*
X2381000Y838000D02*
D03*
X2336000D02*
D03*
X2225000Y339000D02*
D03*
Y294000D02*
D03*
X2224992Y211000D02*
D03*
Y251000D02*
D03*
X2268992Y250969D02*
D03*
Y210969D02*
D03*
X2269000Y294000D02*
D03*
Y339000D02*
D03*
X2226000Y696000D02*
D03*
Y651000D02*
D03*
X2225992Y568000D02*
D03*
Y608000D02*
D03*
X2269992Y607968D02*
D03*
Y567968D02*
D03*
X2270000Y651000D02*
D03*
Y696000D02*
D03*
X2268000Y1076000D02*
D03*
Y1031000D02*
D03*
X2267992Y947968D02*
D03*
Y987968D02*
D03*
X2223992Y988000D02*
D03*
Y948000D02*
D03*
X2224000Y1031000D02*
D03*
Y1076000D02*
D03*
X2030000Y711000D02*
D03*
Y636000D02*
D03*
X1807000D02*
D03*
X1806000Y677000D02*
D03*
X1684000Y857000D02*
D03*
X1374000Y1086226D02*
D03*
X1481315Y486315D02*
D03*
X1120315Y852685D02*
D03*
X950736Y921264D02*
D03*
X983315Y674315D02*
D03*
X879000Y557000D02*
D03*
X878000Y656000D02*
D03*
X879000Y606000D02*
D03*
X322000Y655000D02*
D03*
X231000D02*
D03*
X278000D02*
D03*
X451000Y451000D02*
D03*
X414000Y482000D02*
D03*
X385000Y514000D02*
D03*
X177000Y739000D02*
D03*
X1319000Y875000D02*
D03*
X1169643Y951357D02*
D03*
X843000Y952000D02*
D03*
X738000Y397000D02*
D03*
X793000Y396000D02*
D03*
X843000Y397000D02*
D03*
X765000Y777998D02*
D03*
X585713Y491711D02*
D03*
X1545000Y957000D02*
D03*
X1430528Y996472D02*
D03*
D56*
X1243000Y287000D02*
D03*
X1302055D02*
D03*
X1243000Y212000D02*
D03*
X1302055D02*
D03*
X1301055Y362000D02*
D03*
X1242000D02*
D03*
X1565488Y90000D02*
D03*
X1624543D02*
D03*
X1565473Y168000D02*
D03*
X1624528D02*
D03*
X1565473Y250000D02*
D03*
X1624528D02*
D03*
X1371527Y714000D02*
D03*
X1403528Y782000D02*
D03*
X1344473D02*
D03*
X1312472Y714000D02*
D03*
%TF.MD5,a992352262fa38a12a0e12cda75ce0f0*%
M02*
